# Blender v2.93.0 OBJ File: 'Cross.blend'
# www.blender.org
mtllib Cross.mtl
o Plane_Plane.027
v 0.130794 0.027672 -0.018733
v 0.130794 0.027672 0.018733
v 0.137141 0.000000 0.032722
v 0.137141 0.000000 -0.032722
v 0.031946 0.000000 0.137141
v 0.031946 0.000000 -0.248256
v 0.031946 0.000000 0.032722
v 0.031946 0.000000 -0.032722
v 0.017956 0.027672 0.132346
v 0.017956 0.027672 -0.243008
v 0.017956 0.027672 0.018733
v 0.017956 0.027672 -0.018733
v 0.031946 0.000000 0.084982
v 0.017956 0.027672 0.084982
v 0.084543 0.027672 0.018733
v 0.084543 0.000000 0.032722
v 0.084543 0.000000 -0.032722
v 0.084543 0.027672 -0.018733
v 0.031946 0.000000 -0.200882
v 0.017956 0.027672 -0.200882
v 0.165784 0.000000 0.000000
v 0.147192 0.027672 0.000000
v 0.031946 0.000000 0.000000
v 0.084543 0.000000 0.000000
v -0.130794 0.027672 -0.018733
v -0.130794 0.027672 0.018733
v -0.137141 0.000000 0.032722
v -0.137141 0.000000 -0.032722
v -0.031946 0.000000 0.137141
v -0.031946 0.000000 -0.248256
v -0.031946 0.000000 0.032722
v -0.031946 0.000000 -0.032722
v -0.017956 0.027672 0.132346
v -0.017956 0.027672 -0.243008
v -0.017956 0.027672 0.018733
v -0.017956 0.027672 -0.018733
v -0.031946 0.000000 0.084982
v -0.017956 0.027672 0.084982
v -0.084543 0.027672 0.018733
v -0.084543 0.000000 0.032722
v -0.084543 0.000000 -0.032722
v -0.084543 0.027672 -0.018733
v -0.031946 0.000000 -0.200882
v -0.017956 0.027672 -0.200882
v -0.165784 0.000000 -0.000000
v -0.147192 0.027672 -0.000000
v -0.031946 0.000000 -0.000000
v -0.084543 0.000000 -0.000000
v 0.000000 0.027672 -0.263569
v -0.000000 0.000000 0.178267
v -0.000000 0.027672 0.155461
v 0.000000 0.000000 -0.284837
v -0.000000 0.000000 0.032722
v 0.000000 0.000000 -0.032722
v -0.000000 0.000000 0.084982
v 0.000000 0.000000 -0.200882
v 0.000000 0.000000 0.000000
v 0.137141 0.027672 -0.032722
v 0.137141 0.027672 0.032722
v 0.031946 0.000000 -0.032722
v 0.031946 0.027672 0.137141
v 0.031946 0.027672 -0.248256
v 0.031946 0.027672 0.032722
v 0.031946 0.027672 -0.032722
v 0.031946 0.027672 0.084982
v 0.084543 0.027672 0.032722
v 0.084543 0.027672 -0.032722
v 0.031946 0.027672 -0.200882
v 0.165784 0.027672 0.000000
v -0.137141 0.027672 -0.032722
v -0.137141 0.027672 0.032722
v -0.137141 0.000000 -0.032722
v -0.031946 0.000000 0.137141
v -0.031946 0.027672 0.137141
v -0.031946 0.027672 -0.248256
v -0.031946 0.027672 0.032722
v -0.031946 0.027672 -0.032722
v -0.031946 0.027672 0.084982
v -0.084543 0.027672 0.032722
v -0.084543 0.027672 -0.032722
v -0.031946 0.027672 -0.200882
v -0.165784 0.027672 -0.000000
v 0.000000 0.027672 -0.284837
v -0.000000 0.027672 0.178267
v 0.084543 0.027672 0.032722
v 0.031946 0.027672 0.032722
v 0.165784 0.027672 0.000000
v 0.137141 0.027672 -0.032722
v -0.000000 0.027672 0.178267
v 0.031946 0.027672 0.137141
v 0.084543 0.027672 -0.032722
v 0.031946 0.027672 -0.032722
v 0.031946 0.027672 0.084982
v 0.031946 0.027672 -0.200882
v 0.137141 0.027672 0.032722
v 0.031946 0.027672 -0.248256
v 0.000000 0.027672 -0.284837
v -0.084543 0.027672 0.032722
v -0.031946 0.027672 0.032722
v -0.165784 0.027672 -0.000000
v -0.137141 0.027672 -0.032722
v -0.031946 0.027672 0.137141
v -0.084543 0.027672 -0.032722
v -0.031946 0.027672 -0.032722
v -0.031946 0.027672 0.084982
v -0.031946 0.027672 -0.200882
v -0.137141 0.027672 0.032722
v -0.031946 0.027672 -0.248256
v 0.031946 0.039008 0.000000
v 0.017956 0.039008 0.018733
v 0.084543 0.039008 0.000000
v 0.084543 0.039008 0.018733
v 0.017956 0.039008 -0.018733
v 0.084543 0.039008 -0.018733
v 0.147192 0.039008 0.000000
v -0.000000 0.039008 0.032722
v 0.000000 0.039008 -0.032722
v 0.017956 0.039008 0.084982
v -0.000000 0.039008 0.084982
v 0.017956 0.039008 -0.200882
v 0.000000 0.039008 -0.200882
v 0.000000 0.039008 0.000000
v -0.000000 0.039008 0.155461
v 0.000000 0.039008 -0.263569
v -0.031946 0.039008 -0.000000
v -0.017956 0.039008 0.018733
v -0.084543 0.039008 -0.000000
v -0.084543 0.039008 0.018733
v -0.017956 0.039008 -0.018733
v -0.084543 0.039008 -0.018733
v -0.147192 0.039008 -0.000000
v -0.017956 0.039008 0.084982
v -0.017956 0.039008 -0.200882
v 0.130794 0.039008 -0.018733
v 0.017956 0.039008 0.132346
v 0.130794 0.039008 0.018733
v 0.017956 0.039008 -0.243008
v -0.130794 0.039008 -0.018733
v -0.017956 0.039008 0.132346
v -0.130794 0.039008 0.018733
v -0.017956 0.039008 -0.243008
vt 0.348330 0.328453
vt 0.419857 0.404364
vt 0.419857 0.404364
vt 0.348330 0.328453
vt 0.904403 0.235096
vt 0.844135 0.291884
vt 0.808805 0.254390
vt 0.869073 0.197602
vt 0.174260 0.675936
vt 0.174260 0.739406
vt 0.130695 0.739406
vt 0.130695 0.675936
vt 0.261390 0.583331
vt 0.261390 0.530639
vt 0.304955 0.530639
vt 0.304955 0.583331
vt 0.174260 0.530639
vt 0.174260 0.612589
vt 0.130695 0.612589
vt 0.130695 0.530639
vt 0.087130 0.734869
vt 0.087130 0.792405
vt 0.043565 0.792405
vt 0.043565 0.734869
vt 0.217825 0.530639
vt 0.217825 0.599104
vt 0.174260 0.599104
vt 0.174260 0.530639
vt 0.217825 0.653609
vt 0.217825 0.708114
vt 0.174260 0.708114
vt 0.174260 0.653609
vt 0.261390 0.636023
vt 0.304955 0.636023
vt 0.997491 0.147383
vt 0.929341 0.140814
vt 0.190433 0.396190
vt 0.266731 0.324297
vt 0.266731 0.324297
vt 0.190433 0.396190
vt 0.087130 0.530639
vt 0.043565 0.530639
vt 0.177887 0.489054
vt 0.138874 0.485294
vt 0.138874 0.485294
vt 0.177887 0.489054
vt 1.000000 0.215803
vt 0.939732 0.272591
vt 0.479216 0.530639
vt 0.479216 0.599075
vt 0.435651 0.599075
vt 0.435651 0.530639
vt 0.879464 0.329379
vt 0.111218 0.076812
vt 0.307880 0.285525
vt 0.307880 0.285525
vt 0.111218 0.076812
vt 0.842860 0.363869
vt 0.807531 0.326375
vt 0.475378 0.504507
vt 0.429846 0.497407
vt 0.429846 0.497407
vt 0.475378 0.504507
vt 0.772201 0.288881
vt 0.590644 0.096198
vt 0.627248 0.061708
vt 0.070070 0.115584
vt 0.024588 0.067316
vt 0.024588 0.067316
vt 0.070070 0.115584
vt 0.470994 0.458635
vt 0.470994 0.458635
vt 0.992202 0.449024
vt 1.000000 0.530639
vt 0.899283 0.423750
vt 0.935888 0.389260
vt 0.348520 0.607100
vt 0.348520 0.530639
vt 0.392085 0.530639
vt 0.392085 0.607100
vt 0.137438 0.446126
vt 0.137438 0.446126
vt 0.500000 0.000000
vt 0.576100 0.007425
vt 0.022963 0.024370
vt 0.065736 0.028544
vt 0.065736 0.028544
vt 0.022963 0.024370
vt 0.384178 0.213632
vt 0.384178 0.213632
vt 0.710658 0.417654
vt 0.675329 0.380159
vt 0.735597 0.323371
vt 0.770926 0.360866
vt 0.043565 0.767929
vt 0.000000 0.767929
vt 0.000000 0.704459
vt 0.043565 0.704459
vt 0.043565 0.651767
vt 0.000000 0.651767
vt 0.000000 0.599075
vt 0.043565 0.599075
vt 0.043565 0.913226
vt 0.000000 0.913226
vt 0.000000 0.831276
vt 0.043565 0.831276
vt 0.130695 0.588174
vt 0.087130 0.588174
vt 0.087130 0.530639
vt 0.130695 0.530639
vt 0.435650 0.599104
vt 0.392085 0.599104
vt 0.392085 0.530639
vt 0.435650 0.530639
vt 0.261390 0.585144
vt 0.217825 0.585144
vt 0.217825 0.530639
vt 0.261390 0.530639
vt 0.261390 0.639648
vt 0.217825 0.639648
vt 0.617570 0.505367
vt 0.615061 0.436948
vt 0.307181 0.367226
vt 0.230883 0.439118
vt 0.230883 0.439118
vt 0.307181 0.367226
vt 0.130695 0.792405
vt 0.087130 0.792405
vt 0.476187 0.167457
vt 0.477623 0.206625
vt 0.477623 0.206625
vt 0.476187 0.167457
vt 0.685720 0.511936
vt 0.745988 0.455148
vt 0.000000 0.530639
vt 0.043565 0.530639
vt 0.806256 0.398360
vt 0.554040 0.130689
vt 0.378709 0.443137
vt 0.378709 0.443137
vt 0.918993 0.518006
vt 0.862679 0.458241
vt 0.304955 0.530639
vt 0.348520 0.530639
vt 0.348520 0.607100
vt 0.304955 0.607100
vt 0.437173 0.163696
vt 0.437173 0.163696
vt 0.502891 0.076406
vt 0.174260 0.530639
vt 0.174260 0.599104
vt 0.087130 0.588174
vt 0.087130 0.792405
vt 0.175329 0.380160
vt 0.235597 0.323371
vt 0.235597 0.323371
vt 0.175329 0.380160
vt 0.000000 0.704459
vt 0.000000 0.767929
vt nan nan
vt nan nan
vt nan nan
vt nan nan
vt 0.043565 0.734869
vt 0.043565 0.792405
vt 0.130695 0.530639
vt 0.130695 0.612589
vt 0.497491 0.147383
vt 0.500000 0.215803
vt 0.500000 0.215803
vt 0.497491 0.147383
vt 0.000000 0.651767
vt 0.130695 0.675936
vt 0.392085 0.607100
vt 0.392085 0.530639
vt 0.174260 0.653609
vt nan nan
vt nan nan
vt nan nan
vt nan nan
vt 0.043565 0.530639
vt 0.000000 0.599075
vt 0.130695 0.739406
vt 0.392085 0.530639
vt 0.392085 0.599104
vt 0.308805 0.254390
vt 0.369073 0.197602
vt 0.369073 0.197602
vt 0.308805 0.254390
vt 0.185720 0.511936
vt 0.117570 0.505367
vt 0.117570 0.505367
vt 0.185720 0.511936
vt 0.304955 0.636023
vt 0.304955 0.583331
vt 0.087130 0.530639
vt 0.000000 0.831276
vt 0.000000 0.913226
vt nan nan
vt nan nan
vt nan nan
vt nan nan
vt 0.348520 0.607100
vt 0.348520 0.530639
vt 0.217825 0.585144
vt 0.217825 0.639648
vt 0.304955 0.530639
vt 0.306256 0.398360
vt 0.245988 0.455148
vt 0.115061 0.436948
vt 0.500000 0.530639
vt 0.418993 0.518006
vt 0.362679 0.458241
vt 0.054040 0.130689
vt 0.002891 0.076406
vt 0.000000 0.000000
vt 0.424628 0.256561
vt 0.439732 0.272591
vt 0.379464 0.329379
vt 0.429341 0.140814
vt 0.492202 0.449025
vt 0.435887 0.389260
vt 0.127248 0.061708
vt 0.076100 0.007425
vt 0.210658 0.417654
vt 0.270926 0.360866
vt 0.307531 0.326375
vt 0.342860 0.363869
vt 0.090644 0.096198
vt 0.272201 0.288881
vt 0.399283 0.423750
vt 0.404403 0.235096
vt 0.344135 0.291885
vt 0.424628 0.256561
vn -1.0000 0.0000 0.0000
vn 0.0000 -1.0000 0.0000
vn 1.0000 0.0000 0.0000
vn -0.0000 0.0000 1.0000
vn 0.7897 0.0000 0.6134
vn 0.7524 0.0000 -0.6587
vn 0.0000 0.0000 -1.0000
vn 0.7524 0.0000 0.6586
vn 0.7524 0.0000 0.6587
vn 0.7532 0.0000 -0.6578
vn 0.7524 0.0000 -0.6586
vn -0.7532 0.0000 -0.6578
vn -0.7897 0.0000 0.6134
vn -0.7524 0.0000 -0.6587
vn -0.7524 0.0000 0.6586
vn -0.7524 0.0000 0.6587
vn -0.7524 0.0000 -0.6586
vn 0.0000 1.0000 0.0000
usemtl Material.001
s off
f 35/1/1 38/2/1 132/3/1 126/4/1
f 24/5/2 23/6/2 8/7/2 17/8/2
f 13/9/3 7/10/3 86/11/3 93/12/3
f 16/13/4 3/14/4 95/15/4 85/16/4
f 50/17/5 5/18/5 90/19/5 89/20/5
f 19/21/3 6/22/3 96/23/3 94/24/3
f 21/25/6 4/26/6 88/27/6 87/28/6
f 17/29/7 8/30/7 92/31/7 91/32/7
f 5/18/3 13/9/3 93/12/3 90/19/3
f 4/26/7 17/29/7 91/32/7 88/27/7
f 7/33/4 16/13/4 85/16/4 86/34/4
f 21/35/2 24/5/2 17/8/2 4/36/2
f 18/37/7 12/38/7 113/39/7 114/40/7
f 8/41/3 19/21/3 94/24/3 92/42/3
f 2/43/8 22/44/8 115/45/8 136/46/8
f 3/47/2 16/48/2 24/5/2 21/35/2
f 3/49/9 21/50/9 87/51/9 95/52/9
f 16/48/2 7/53/2 23/6/2 24/5/2
f 44/54/1 36/55/1 129/56/1 133/57/1
f 7/53/2 53/58/2 57/59/2 23/6/2
f 51/60/5 9/61/5 135/62/5 123/63/5
f 8/7/2 54/64/2 56/65/2 19/66/2
f 20/67/3 10/68/3 137/69/3 120/70/3
f 38/2/1 33/71/1 139/72/1 132/3/1
f 5/73/2 50/74/2 55/75/2 13/76/2
f 6/77/10 52/78/10 97/79/10 96/80/10
f 22/44/11 1/81/11 134/82/11 115/45/11
f 19/66/2 56/65/2 52/83/2 6/84/2
f 49/85/12 34/86/12 141/87/12 124/88/12
f 13/76/2 55/75/2 53/58/2 7/53/2
f 1/81/7 18/37/7 114/40/7 134/82/7
f 23/6/2 57/59/2 54/64/2 8/7/2
f 36/55/7 42/89/7 130/90/7 129/56/7
f 48/91/2 41/92/2 32/93/2 47/94/2
f 37/95/1 105/96/1 99/97/1 31/98/1
f 40/99/4 98/100/4 107/101/4 27/102/4
f 50/103/13 89/104/13 102/105/13 29/106/13
f 43/107/1 106/108/1 108/109/1 30/110/1
f 45/111/14 100/112/14 101/113/14 28/114/14
f 41/115/7 103/116/7 104/117/7 32/118/7
f 29/106/1 102/105/1 105/96/1 37/95/1
f 28/119/7 101/120/7 103/116/7 41/115/7
f 31/98/4 99/97/4 98/100/4 40/99/4
f 45/121/2 28/122/2 41/92/2 48/91/2
f 11/123/4 15/124/4 112/125/4 110/126/4
f 32/127/1 104/128/1 106/108/1 43/107/1
f 46/129/15 26/130/15 140/131/15 131/132/15
f 27/133/2 45/121/2 48/91/2 40/134/2
f 27/102/16 107/101/16 100/135/16 45/136/16
f 40/134/2 48/91/2 47/94/2 31/137/2
f 15/124/4 2/43/4 136/46/4 112/125/4
f 31/137/2 47/94/2 57/59/2 53/58/2
f 33/71/13 51/60/13 123/63/13 139/72/13
f 32/93/2 43/138/2 56/65/2 54/64/2
f 34/86/1 44/54/1 133/57/1 141/87/1
f 14/139/3 11/123/3 110/126/3 118/140/3
f 29/141/2 37/142/2 55/75/2 50/74/2
f 30/143/12 108/144/12 97/145/12 52/146/12
f 25/147/17 46/129/17 131/132/17 138/148/17
f 43/138/2 30/149/2 52/83/2 56/65/2
f 42/89/7 25/147/7 138/148/7 130/90/7
f 37/142/2 31/137/2 53/58/2 55/75/2
f 12/38/3 20/67/3 120/70/3 113/39/3
f 47/94/2 32/93/2 54/64/2 57/59/2
f 88/27/4 87/28/4 69/150/4 58/151/4
f 104/128/4 106/108/4 81/152/4 77/153/4
f 91/154/4 92/155/4 64/156/4 67/157/4
f 105/96/4 99/97/4 76/158/4 78/159/4
f 8/160/4 92/161/4 64/162/4 60/163/4
f 96/23/4 94/24/4 68/164/4 62/165/4
f 90/19/4 89/20/4 84/166/4 61/167/4
f 100/168/4 107/169/4 71/170/4 82/171/4
f 99/97/4 98/100/4 79/172/4 76/158/4
f 93/12/4 90/19/4 61/167/4 65/173/4
f 97/79/4 96/80/4 62/174/4 83/175/4
f 91/32/4 88/27/4 58/151/4 67/176/4
f 102/177/4 29/178/4 73/179/4 74/180/4
f 94/24/4 92/42/4 64/181/4 68/164/4
f 98/100/4 107/101/4 71/182/4 79/172/4
f 86/11/4 93/12/4 65/173/4 63/183/4
f 100/112/4 101/113/4 70/184/4 82/185/4
f 104/186/4 103/187/4 80/188/4 77/189/4
f 95/190/4 87/191/4 69/192/4 59/193/4
f 85/16/4 86/34/4 63/194/4 66/195/4
f 106/108/4 108/109/4 75/196/4 81/152/4
f 89/104/4 102/105/4 74/197/4 84/198/4
f 101/199/4 28/200/4 72/201/4 70/202/4
f 108/144/4 97/145/4 83/203/4 75/204/4
f 102/105/4 105/96/4 78/159/4 74/197/4
f 101/120/4 103/116/4 80/205/4 70/206/4
f 95/15/4 85/16/4 66/195/4 59/207/4
f 15/124/18 11/123/18 86/208/18 85/209/18
f 1/81/18 22/44/18 87/191/18 88/210/18
f 9/61/18 51/60/18 89/211/18 90/212/18
f 12/38/18 18/37/18 91/154/18 92/155/18
f 14/139/18 9/61/18 90/212/18 93/213/18
f 20/67/18 12/38/18 92/155/18 94/214/18
f 11/123/18 14/139/18 93/213/18 86/208/18
f 2/43/18 15/124/18 85/209/18 95/190/18
f 18/37/18 1/81/18 88/210/18 91/154/18
f 10/68/18 20/67/18 94/214/18 96/215/18
f 22/44/18 2/43/18 95/190/18 87/191/18
f 49/85/18 10/68/18 96/215/18 97/216/18
f 35/1/18 39/217/18 98/218/18 99/219/18
f 46/129/18 25/147/18 101/220/18 100/168/18
f 51/60/18 33/71/18 102/221/18 89/211/18
f 42/89/18 36/55/18 104/186/18 103/187/18
f 33/71/18 38/2/18 105/222/18 102/221/18
f 36/55/18 44/54/18 106/223/18 104/186/18
f 38/2/18 35/1/18 99/219/18 105/222/18
f 39/217/18 26/130/18 107/169/18 98/218/18
f 25/147/18 42/89/18 103/187/18 101/220/18
f 44/54/18 34/86/18 108/224/18 106/223/18
f 26/130/18 46/129/18 100/168/18 107/169/18
f 34/86/18 49/85/18 97/216/18 108/224/18
f 111/225/18 114/40/18 113/39/18 109/226/18
f 115/45/18 134/82/18 114/40/18 111/225/18
f 136/46/18 115/45/18 111/225/18 112/125/18
f 112/125/18 111/225/18 109/226/18 110/126/18
f 110/126/18 109/226/18 122/227/18 116/228/18
f 113/39/18 120/70/18 121/229/18 117/230/18
f 135/62/18 118/140/18 119/231/18 123/63/18
f 120/70/18 137/69/18 124/88/18 121/229/18
f 109/226/18 113/39/18 117/230/18 122/227/18
f 118/140/18 110/126/18 116/228/18 119/231/18
f 127/232/18 125/233/18 129/56/18 130/90/18
f 131/132/18 127/232/18 130/90/18 138/148/18
f 140/131/18 128/234/18 127/232/18 131/132/18
f 128/234/18 126/4/18 125/233/18 127/232/18
f 126/4/18 116/228/18 122/227/18 125/233/18
f 129/56/18 117/230/18 121/229/18 133/57/18
f 139/72/18 123/63/18 119/231/18 132/3/18
f 133/57/18 121/229/18 124/88/18 141/87/18
f 125/233/18 122/227/18 117/230/18 129/56/18
f 132/3/18 119/231/18 116/228/18 126/4/18
f 10/68/10 49/85/10 124/88/10 137/69/10
f 9/61/3 14/139/3 118/140/3 135/62/3
f 26/130/4 39/217/4 128/234/4 140/131/4
f 39/217/4 35/1/4 126/4/4 128/234/4
